<svg xmlns="http://www.w3.org/2000/svg" xmlns:xlink="http://www.w3.org/1999/xlink" viewBox="0 0 396.35 120.23">
<defs>
<style>.cls-1{fill:#fff;}.cls-2{fill:url(#linear-gradient);}.cls-3{fill:url(#linear-gradient-2);}.cls-4{fill:url(#linear-gradient-3);}.cls-5{fill:url(#linear-gradient-4);}.cls-6{fill:url(#linear-gradient-5);}.cls-7{fill:#16b8a8;}</style>
<linearGradient id="linear-gradient" x1="52.84" y1="38.49" x2="97.2" y2="65.14" gradientUnits="userSpaceOnUse">
<stop offset="0" stop-color="#143744"/>
<stop offset="0.07" stop-color="#143c48"/>
<stop offset="0.15" stop-color="#144c55"/>
<stop offset="0.16" stop-color="#145058"/>
<stop offset="0.41" stop-color="#15928b"/>
<stop offset="0.55" stop-color="#16b8a8"/>
<stop offset="0.91" stop-color="#16b8a8"/>
</linearGradient>
<linearGradient id="linear-gradient-2" x1="27.03" y1="78.55" x2="49.02" y2="78.55" gradientUnits="userSpaceOnUse">
<stop offset="0" stop-color="#143744"/>
<stop offset="0.09" stop-color="#14404b"/>
<stop offset="0.23" stop-color="#155a5f"/>
<stop offset="0.42" stop-color="#15837f"/>
<stop offset="0.62" stop-color="#16b8a8"/>
<stop offset="0.91" stop-color="#16b8a8"/>
</linearGradient>
<linearGradient id="linear-gradient-3" x1="29.81" y1="54.59" x2="39.47" y2="59.09" gradientUnits="userSpaceOnUse">
<stop offset="0" stop-color="#143744"/>
<stop offset="0.14" stop-color="#143c48"/>
<stop offset="0.3" stop-color="#144c54"/>
<stop offset="0.49" stop-color="#156568"/>
<stop offset="0.69" stop-color="#158983"/>
<stop offset="0.9" stop-color="#16b6a6"/>
<stop offset="0.91" stop-color="#16b8a8"/>
</linearGradient>
<linearGradient id="linear-gradient-4" x1="34.98" y1="44.42" x2="68.51" y2="45.59" gradientUnits="userSpaceOnUse">
<stop offset="0" stop-color="#143744"/>
<stop offset="0.08" stop-color="#145058"/>
<stop offset="0.33" stop-color="#169b91"/>
<stop offset="0.44" stop-color="#16b8a8"/>
<stop offset="0.91" stop-color="#16b8a8"/>
</linearGradient>
<linearGradient id="linear-gradient-5" x1="43.77" y1="88.03" x2="72.68" y2="94.7" gradientUnits="userSpaceOnUse">
<stop offset="0" stop-color="#143744"/>
<stop offset="0.52" stop-color="#16b8a8"/>
<stop offset="0.57" stop-color="#16b8a8"/>
<stop offset="0.91" stop-color="#16b8a8"/>
</linearGradient>
</defs>
<g id="logo_WH_-_V2" data-name="logo WH - V2">
<path class="cls-1" d="M118.16,47.51H103.3v-7h38v7H126.48v37.8h-8.32Z"/>
<path class="cls-1" d="M180.54,65.71v19.6h-8V66.73c0-6.08-3-9-8.14-9-5.7,0-9.54,3.46-9.54,10.31v17.3h-8V37.78h8V55.07c2.62-2.82,6.66-4.35,11.4-4.35C174.46,50.72,180.54,55.39,180.54,65.71Z"/>
<path class="cls-1" d="M222.12,51.1l-16,37c-3.14,7.75-7.49,10.12-13.19,10.12A14.11,14.11,0,0,1,183.75,95l3.2-5.89a8.68,8.68,0,0,0,5.89,2.37c2.82,0,4.49-1.34,6-4.74l.58-1.34L184.52,51.1h8.32L203.6,76.4l10.83-25.3Z"/>
<path class="cls-1" d="M222.76,81.91l3.07-6.08a23.05,23.05,0,0,0,11.91,3.39c5.07,0,7.18-1.41,7.18-3.78,0-6.53-21.14-.38-21.14-14,0-6.47,5.83-10.69,15.05-10.69,4.55,0,9.74,1.09,12.81,2.94l-3.07,6.09a18.73,18.73,0,0,0-9.8-2.56c-4.87,0-7.17,1.6-7.17,3.84,0,6.92,21.13.77,21.13,14.16,0,6.4-5.89,10.57-15.5,10.57C231.53,85.76,225.83,84.09,222.76,81.91Z"/>
<path class="cls-1" d="M291.68,70.77H264.84c1,5,5.12,8.2,11.08,8.2a12.26,12.26,0,0,0,9.29-3.72l4.29,4.93c-3.07,3.65-7.88,5.58-13.77,5.58-11.47,0-18.9-7.37-18.9-17.56s7.5-17.48,17.68-17.48c10,0,17.3,7,17.3,17.68C291.81,69,291.74,70,291.68,70.77Zm-26.9-5.32h19.4a9.31,9.31,0,0,0-9.67-8.33A9.44,9.44,0,0,0,264.78,65.45Z"/>
<path class="cls-1" d="M332.61,51.1V85.31H325V81a14,14,0,0,1-11,4.81c-8.78,0-14.73-4.81-14.73-15.12V51.1h8V69.55c0,6.21,2.95,9.16,8,9.16,5.57,0,9.35-3.46,9.35-10.31V51.1Z"/>
<path class="cls-1" d="M339.2,81.91l3.08-6.08a23.05,23.05,0,0,0,11.91,3.39c5.06,0,7.18-1.41,7.18-3.78,0-6.53-21.14-.38-21.14-14,0-6.47,5.83-10.69,15-10.69,4.55,0,9.74,1.09,12.81,2.94L365,59.75a18.73,18.73,0,0,0-9.8-2.56c-4.87,0-7.18,1.6-7.18,3.84,0,6.92,21.14.77,21.14,14.16,0,6.4-5.89,10.57-15.5,10.57C348,85.76,342.28,84.09,339.2,81.91Z"/>
<path class="cls-2" d="M92.18,55.66l-8.06-14A17.64,17.64,0,0,0,69,32.88C62.57,36,56.26,38.75,50.38,42.59a12.7,12.7,0,0,1,4.6-.87H66.59a12.7,12.7,0,0,1,11,6.35l1.26,2.19c1.42-3.07,2.9-6.14,4.15-9.35-1.25,3.21-2.73,6.28-4.15,9.35l4.54,7.86a12.72,12.72,0,0,1,.32,12.12,20.91,20.91,0,0,1,5.47,8.25l3-5.19A17.65,17.65,0,0,0,92.18,55.66Z"/>
<path class="cls-3" d="M27,64.2a17.58,17.58,0,0,0,2.36,9.1l8.06,14a17.45,17.45,0,0,0,5.19,5.64c1.42-2.65,4.17-5.06,6.38-7.16a12.66,12.66,0,0,1-5-4.86l-5.81-10a12.65,12.65,0,0,1-1.66-5.38C33.34,66.34,30.09,65.55,27,64.2Z"/>
<path class="cls-4" d="M29.39,55.66A17.62,17.62,0,0,0,27,64.2c3.06,1.35,6.31,2.14,9.48,1.25a12.75,12.75,0,0,1,1.66-7.33l.5-.85c-2.55-3-2.72-7.35-3.75-11.21Z"/>
<path class="cls-5" d="M68.84,32.88H52.72A17.63,17.63,0,0,0,37.45,41.7l-2.53,4.36c1,3.86,1.2,8.21,3.75,11.21L44,48.07a12.68,12.68,0,0,1,6.4-5.48C56.26,38.75,62.57,36,69,32.88Z"/>
<path class="cls-6" d="M72.15,93.9a14.09,14.09,0,0,0-4.23-6.74c-.44,0-.89.07-1.33.07H55a12.66,12.66,0,0,1-6-1.49c-2.21,2.1-5,4.51-6.38,7.16a17.61,17.61,0,0,0,10.08,3.18H68.84a17.35,17.35,0,0,0,3.61-.38A4.63,4.63,0,0,0,72.15,93.9Z"/>
<path class="cls-7" d="M84.91,84.4a3.15,3.15,0,0,0-3.81-1L70.48,68.81l-1.06.78L76.29,79l-2.65,2L65.27,69.71a3.12,3.12,0,1,0-1.06.79l8.9,12.06,0,0,.08.1,3.65-2.81L80,84.18a3.14,3.14,0,1,0,4.87.22ZM64,69.1a1.82,1.82,0,0,1-2.16-2.93A1.82,1.82,0,1,1,64,69.1ZM83.47,87.73a1.82,1.82,0,1,1-2.16-2.93,1.82,1.82,0,0,1,2.16,2.93Z"/>
<path class="cls-7" d="M72.2,49.78a3.13,3.13,0,0,0-5.63,2.67l-12.8,7.82.69,1.12,12.79-7.81a3.16,3.16,0,0,0,3.91.51A3.13,3.13,0,0,0,72.2,49.78ZM68,52.36a1.82,1.82,0,1,1,2.51.61A1.82,1.82,0,0,1,68,52.36Z"/>
<path class="cls-7" d="M43.14,71.6a3.14,3.14,0,0,0,5.64-2.67l15.47-9.3-.69-1.13L48.09,67.81a3.13,3.13,0,0,0-5,3.79ZM47.37,69a1.82,1.82,0,0,1-.6,2.5,1.82,1.82,0,1,1-1.9-3.11A1.82,1.82,0,0,1,47.37,69Z"/>
</g>
</svg>